<svg width="17" height="16" viewBox="0 0 17 16" fill="none" xmlns="http://www.w3.org/2000/svg">
<path d="M12.3335 3.26675C12.6649 3.26675 12.9335 2.99812 12.9335 2.66675C12.9335 2.33538 12.6649 2.06675 12.3335 2.06675L12.3335 3.26675ZM4.3335 2.06675C4.00212 2.06675 3.7335 2.33538 3.7335 2.66675C3.7335 2.99812 4.00212 3.26675 4.3335 3.26675L4.3335 2.06675ZM12.3335 2.06675L4.3335 2.06675L4.3335 3.26675L12.3335 3.26675L12.3335 2.06675Z" fill="#FEFEFF"/>
<path d="M8.33333 8.08511H10.3704C10.6199 8.08511 10.7572 7.76354 10.5993 7.54937L8.56217 4.78714C8.44387 4.62673 8.2228 4.62673 8.1045 4.78714L6.06739 7.54937C5.90944 7.76354 6.0468 8.08511 6.29623 8.08511H8.33333ZM8.33333 8.08511V13.3335" stroke="#FEFEFF" stroke-width="1.2" stroke-linecap="round" stroke-linejoin="round"/>
</svg>
