<svg width="18" height="18" viewBox="0 0 18 18" fill="none" xmlns="http://www.w3.org/2000/svg">
<path d="M15.75 13.125C15.75 14.5747 14.5747 15.75 13.125 15.75C11.6753 15.75 10.5 14.5747 10.5 13.125C10.5 11.6753 11.6753 10.5 13.125 10.5C14.5747 10.5 15.75 11.6753 15.75 13.125Z" stroke="#7F7F7F" stroke-width="1.5"/>
<path d="M13.125 10.5L4.875 10.5C3.42525 10.5 2.25 11.6753 2.25 13.125C2.25 14.5747 3.42525 15.75 4.875 15.75L13.125 15.75C14.5747 15.75 15.75 14.5747 15.75 13.125C15.75 11.6753 14.5747 10.5 13.125 10.5Z" stroke="#7F7F7F" stroke-width="1.5"/>
<path d="M2.25 4.875C2.25 6.32475 3.42525 7.5 4.875 7.5C6.32475 7.5 7.5 6.32475 7.5 4.875C7.5 3.42525 6.32475 2.25 4.875 2.25C3.42525 2.25 2.25 3.42525 2.25 4.875Z" stroke="#7F7F7F" stroke-width="1.5"/>
<path d="M4.875 2.25L13.125 2.25C14.5747 2.25 15.75 3.42525 15.75 4.875C15.75 6.32475 14.5747 7.5 13.125 7.5L4.875 7.5C3.42525 7.5 2.25 6.32475 2.25 4.875C2.25 3.42525 3.42525 2.25 4.875 2.25Z" stroke="#7F7F7F" stroke-width="1.5"/>
</svg>
