<svg width="17" height="16" viewBox="0 0 17 16" fill="none" xmlns="http://www.w3.org/2000/svg">
<path d="M13.375 3.66675L12.9618 10.3501C12.8563 12.0577 12.8035 12.9115 12.3755 13.5253C12.1639 13.8288 11.8914 14.0849 11.5755 14.2774C10.9364 14.6667 10.081 14.6667 8.37016 14.6667C6.65708 14.6667 5.80054 14.6667 5.16104 14.2767C4.84487 14.0839 4.57233 13.8273 4.36079 13.5233C3.93292 12.9085 3.8813 12.0535 3.77807 10.3435L3.375 3.66675" stroke="#FEFEFF" stroke-width="1.5" stroke-linecap="round"/>
<path d="M6.375 7.82324H10.375" stroke="#FEFEFF" stroke-width="1.5" stroke-linecap="round"/>
<path d="M7.375 10.4363H9.375" stroke="#FEFEFF" stroke-width="1.5" stroke-linecap="round"/>
<path d="M2.375 3.66671H14.375M11.0787 3.66671L10.6236 2.72786C10.3213 2.10421 10.1701 1.79239 9.90935 1.59791C9.85151 1.55477 9.79027 1.5164 9.72622 1.48317C9.43748 1.33337 9.09095 1.33337 8.39789 1.33337C7.68743 1.33337 7.33219 1.33337 7.03866 1.48945C6.97361 1.52405 6.91153 1.56397 6.85307 1.60882C6.5893 1.81117 6.44196 2.13441 6.14728 2.78088L5.74349 3.66671" stroke="#FEFEFF" stroke-width="1.5" stroke-linecap="round"/>
</svg>
