<svg width="24" height="24" viewBox="0 0 24 24" fill="none" xmlns="http://www.w3.org/2000/svg">
<path d="M11.9998 5.88892L18.1109 9.22225L11.9998 12.5556L5.88867 9.22225L11.9998 5.88892Z" stroke="url(#paint0_linear_51_36103)" stroke-width="1.5" stroke-linecap="round" stroke-linejoin="round"/>
<path d="M5.33398 15.3333L5.33398 17.3325C5.33398 18.4801 5.53864 18.8379 6.5624 19.36L11.0068 21.6268C11.9822 22.1243 12.0191 22.1243 12.9945 21.6268L17.4389 19.36C18.4627 18.8379 18.6673 18.4801 18.6673 17.3325V15.3333" stroke="url(#paint1_linear_51_36103)" stroke-width="1.5" stroke-linecap="round" stroke-linejoin="round"/>
<path d="M14.5962 3.28932L12 5.63676L9.40376 3.28932C8.48843 2.46171 8.03077 2.04791 7.47093 2.00383C6.91108 1.95975 6.39803 2.29712 5.37192 2.97186L3.51345 4.19395C2.51688 4.84927 2.0186 5.17693 2.0005 5.66379C1.98241 6.15065 2.4549 6.51684 3.3999 7.24921L5.81645 9.12203L3.3999 10.9949C2.45491 11.7272 1.98241 12.0934 2.0005 12.5803C2.0186 13.0671 2.51688 13.3948 3.51345 14.0501L6.36636 15.9261C6.91362 16.286 7.18725 16.4659 7.48583 16.4424C7.78442 16.4189 8.0285 16.1982 8.51667 15.7568L12 12.6073L14.5962 14.9547C15.5116 15.7823 15.9692 16.1962 16.5291 16.2402C17.0889 16.2843 17.602 15.9469 18.6281 15.2722L20.4865 14.0501C21.4831 13.3948 21.9814 13.0671 21.9995 12.5803C22.0176 12.0934 21.5451 11.7272 20.6001 10.9949L18.1836 9.12203L20.6001 7.24921C21.5451 6.51684 22.0176 6.15065 21.9995 5.66379C21.9814 5.17693 21.4831 4.84927 20.4865 4.19395L18.6281 2.97186C17.602 2.29712 17.0889 1.95975 16.5291 2.00383C15.9692 2.04791 15.5116 2.46171 14.5962 3.28932Z" stroke="url(#paint2_linear_51_36103)" stroke-width="1.5" stroke-linecap="round" stroke-linejoin="round"/>
<defs>
<linearGradient id="paint0_linear_51_36103" x1="3.48242" y1="4.59892" x2="10.5817" y2="17.6642" gradientUnits="userSpaceOnUse">
<stop stop-color="#EC522C"/>
<stop offset="0.537711" stop-color="#EB6B4C"/>
<stop offset="1" stop-color="#B03684"/>
</linearGradient>
<linearGradient id="paint1_linear_51_36103" x1="2.70898" y1="14.0433" x2="9.46259" y2="27.6022" gradientUnits="userSpaceOnUse">
<stop stop-color="#EC522C"/>
<stop offset="0.537711" stop-color="#EB6B4C"/>
<stop offset="1" stop-color="#B03684"/>
</linearGradient>
<linearGradient id="paint2_linear_51_36103" x1="-1.9375" y1="-0.795" x2="15.4449" y2="23.3651" gradientUnits="userSpaceOnUse">
<stop stop-color="#EC522C"/>
<stop offset="0.537711" stop-color="#EB6B4C"/>
<stop offset="1" stop-color="#B03684"/>
</linearGradient>
</defs>
</svg>
