<svg width="17" height="17" viewBox="0 0 17 17" fill="none" xmlns="http://www.w3.org/2000/svg">
<g clip-path="url(#clip0_467_25716)">
<path d="M9.83234 2.79032C10.3291 2.25208 10.5775 1.98295 10.8415 1.82597C11.4784 1.44719 12.2626 1.43542 12.9101 1.7949C13.1785 1.94389 13.4345 2.20544 13.9466 2.72853C14.4586 3.25162 14.7147 3.51317 14.8605 3.78731C15.2124 4.44877 15.2009 5.24988 14.8301 5.90049C14.6764 6.17013 14.413 6.42387 13.8861 6.93136L7.61695 12.9696C6.61845 13.9313 6.1192 14.4121 5.49524 14.6558C4.87128 14.8996 4.18534 14.8816 2.81345 14.8457L2.62679 14.8409C2.20914 14.8299 2.00032 14.8245 1.87893 14.6867C1.75754 14.549 1.77411 14.3362 1.80726 13.9108L1.82525 13.6798C1.91854 12.4824 1.96519 11.8837 2.19901 11.3455C2.43283 10.8073 2.83616 10.3703 3.64282 9.49636L9.83234 2.79032Z" stroke="#484848" stroke-width="1.5" stroke-linejoin="round"/>
<path d="M9.1167 2.8667L13.7834 7.53337" stroke="#484848" stroke-width="1.5" stroke-linejoin="round"/>
<path d="M9.7832 14.8667L15.1165 14.8667" stroke="#484848" stroke-width="1.5" stroke-linecap="round" stroke-linejoin="round"/>
</g>
<defs>
<clipPath id="clip0_467_25716">
<rect width="16" height="16" fill="white" transform="translate(0.449707 0.200012)"/>
</clipPath>
</defs>
</svg>
