<svg width="17" height="17" viewBox="0 0 17 17" fill="none" xmlns="http://www.w3.org/2000/svg">
<g clip-path="url(#clip0_467_25808)">
<path d="M9.83234 2.99031C10.3291 2.45206 10.5775 2.18294 10.8415 2.02595C11.4784 1.64718 12.2626 1.6354 12.9101 1.99489C13.1785 2.14387 13.4345 2.40542 13.9466 2.92851C14.4586 3.45161 14.7147 3.71315 14.8605 3.98729C15.2124 4.64875 15.2009 5.44987 14.8301 6.10047C14.6764 6.37011 14.413 6.62385 13.8861 7.13134L7.61695 13.1695C6.61845 14.1313 6.1192 14.6121 5.49524 14.8558C4.87128 15.0995 4.18534 15.0816 2.81345 15.0457L2.62679 15.0408C2.20914 15.0299 2.00032 15.0245 1.87893 14.8867C1.75754 14.7489 1.77411 14.5362 1.80726 14.1108L1.82525 13.8798C1.91854 12.6824 1.96519 12.0837 2.19901 11.5455C2.43283 11.0073 2.83616 10.5703 3.64282 9.69634L9.83234 2.99031Z" stroke="#484848" stroke-width="1.5" stroke-linejoin="round"/>
<path d="M9.1167 3.06665L13.7834 7.73332" stroke="#484848" stroke-width="1.5" stroke-linejoin="round"/>
<path d="M9.7832 15.0667L15.1165 15.0666" stroke="#484848" stroke-width="1.5" stroke-linecap="round" stroke-linejoin="round"/>
</g>
<defs>
<clipPath id="clip0_467_25808">
<rect width="16" height="16" fill="white" transform="translate(0.449707 0.400024)"/>
</clipPath>
</defs>
</svg>
