<svg width="17" height="17" viewBox="0 0 17 17" fill="none" xmlns="http://www.w3.org/2000/svg">
<g clip-path="url(#clip0_467_25762)">
<path d="M9.83234 3.39033C10.3291 2.85208 10.5775 2.58296 10.8415 2.42598C11.4784 2.0472 12.2626 2.03542 12.9101 2.39491C13.1785 2.5439 13.4345 2.80544 13.9466 3.32854C14.4586 3.85163 14.7147 4.11318 14.8605 4.38731C15.2124 5.04877 15.2009 5.84989 14.8301 6.5005C14.6764 6.77013 14.413 7.02388 13.8861 7.53137L7.61695 13.5696C6.61845 14.5313 6.1192 15.0121 5.49524 15.2559C4.87128 15.4996 4.18534 15.4816 2.81345 15.4458L2.62679 15.4409C2.20914 15.4299 2.00032 15.4245 1.87893 15.2867C1.75754 15.149 1.77411 14.9362 1.80726 14.5108L1.82525 14.2798C1.91854 13.0824 1.96519 12.4837 2.19901 11.9455C2.43283 11.4073 2.83616 10.9703 3.64282 10.0964L9.83234 3.39033Z" stroke="#484848" stroke-width="1.5" stroke-linejoin="round"/>
<path d="M9.1167 3.46671L13.7834 8.13337" stroke="#484848" stroke-width="1.5" stroke-linejoin="round"/>
<path d="M9.7832 15.4667L15.1165 15.4667" stroke="#484848" stroke-width="1.5" stroke-linecap="round" stroke-linejoin="round"/>
</g>
<defs>
<clipPath id="clip0_467_25762">
<rect width="16" height="16" fill="white" transform="translate(0.449707 0.800018)"/>
</clipPath>
</defs>
</svg>
