<svg width="17" height="17" viewBox="0 0 17 17" fill="none" xmlns="http://www.w3.org/2000/svg">
<g clip-path="url(#clip0_467_25670)">
<path d="M9.83234 3.19032C10.3291 2.65207 10.5775 2.38295 10.8415 2.22597C11.4784 1.84719 12.2626 1.83541 12.9101 2.1949C13.1785 2.34388 13.4345 2.60543 13.9466 3.12852C14.4586 3.65162 14.7147 3.91317 14.8605 4.1873C15.2124 4.84876 15.2009 5.64988 14.8301 6.30049C14.6764 6.57012 14.413 6.82387 13.8861 7.33136L7.61695 13.3695C6.61845 14.3313 6.1192 14.8121 5.49524 15.0558C4.87128 15.2995 4.18534 15.2816 2.81345 15.2457L2.62679 15.2409C2.20914 15.2299 2.00032 15.2245 1.87893 15.0867C1.75754 14.949 1.77411 14.7362 1.80726 14.3108L1.82525 14.0798C1.91854 12.8824 1.96519 12.2837 2.19901 11.7455C2.43283 11.2073 2.83616 10.7703 3.64282 9.89635L9.83234 3.19032Z" stroke="#484848" stroke-width="1.5" stroke-linejoin="round"/>
<path d="M9.1167 3.26669L13.7834 7.93336" stroke="#484848" stroke-width="1.5" stroke-linejoin="round"/>
<path d="M9.7832 15.2667L15.1165 15.2667" stroke="#484848" stroke-width="1.5" stroke-linecap="round" stroke-linejoin="round"/>
</g>
<defs>
<clipPath id="clip0_467_25670">
<rect width="16" height="16" fill="white" transform="translate(0.449707 0.600006)"/>
</clipPath>
</defs>
</svg>
