<svg width="17" height="17" viewBox="0 0 17 17" fill="none" xmlns="http://www.w3.org/2000/svg">
<g clip-path="url(#clip0_467_25664)">
<path d="M1.68327 5.93334C1.68327 5.93334 4.66804 2.60001 8.34993 2.60001C12.0318 2.60001 15.0166 5.93334 15.0166 5.93334" stroke="#484848" stroke-width="1.5" stroke-linecap="round"/>
<path d="M14.7124 9.29665C14.9151 9.58087 15.0164 9.72297 15.0164 9.93333C15.0164 10.1437 14.9151 10.2858 14.7124 10.57C13.8017 11.847 11.4759 14.6 8.34977 14.6C5.22363 14.6 2.89784 11.847 1.98713 10.57C1.78445 10.2858 1.68311 10.1437 1.68311 9.93333C1.68311 9.72297 1.78445 9.58087 1.98713 9.29665C2.89784 8.01962 5.22362 5.26666 8.34977 5.26666C11.4759 5.26666 13.8017 8.01962 14.7124 9.29665Z" stroke="#484848" stroke-width="1.5"/>
<path d="M10.3496 9.93335C10.3496 8.82878 9.45418 7.93335 8.34961 7.93335C7.24504 7.93335 6.34961 8.82878 6.34961 9.93335C6.34961 11.0379 7.24504 11.9333 8.34961 11.9333C9.45418 11.9333 10.3496 11.0379 10.3496 9.93335Z" stroke="#484848" stroke-width="1.5"/>
</g>
<defs>
<clipPath id="clip0_467_25664">
<rect width="16" height="16" fill="white" transform="translate(0.349609 0.600006)"/>
</clipPath>
</defs>
</svg>
