<svg width="17" height="17" viewBox="0 0 17 17" fill="none" xmlns="http://www.w3.org/2000/svg">
<g clip-path="url(#clip0_467_25710)">
<path d="M1.68327 5.53335C1.68327 5.53335 4.66804 2.20001 8.34993 2.20001C12.0318 2.20001 15.0166 5.53335 15.0166 5.53335" stroke="#484848" stroke-width="1.5" stroke-linecap="round"/>
<path d="M14.7124 8.89666C14.9151 9.18087 15.0164 9.32298 15.0164 9.53334C15.0164 9.74369 14.9151 9.8858 14.7124 10.17C13.8017 11.447 11.4759 14.2 8.34977 14.2C5.22363 14.2 2.89784 11.447 1.98713 10.17C1.78445 9.8858 1.68311 9.74369 1.68311 9.53334C1.68311 9.32298 1.78445 9.18087 1.98713 8.89666C2.89784 7.61963 5.22362 4.86667 8.34977 4.86667C11.4759 4.86667 13.8017 7.61963 14.7124 8.89666Z" stroke="#484848" stroke-width="1.5"/>
<path d="M10.3496 9.53336C10.3496 8.42879 9.45418 7.53336 8.34961 7.53336C7.24504 7.53336 6.34961 8.42879 6.34961 9.53336C6.34961 10.6379 7.24504 11.5334 8.34961 11.5334C9.45418 11.5334 10.3496 10.6379 10.3496 9.53336Z" stroke="#484848" stroke-width="1.5"/>
</g>
<defs>
<clipPath id="clip0_467_25710">
<rect width="16" height="16" fill="white" transform="translate(0.349609 0.200012)"/>
</clipPath>
</defs>
</svg>
