<svg width="17" height="17" viewBox="0 0 17 17" fill="none" xmlns="http://www.w3.org/2000/svg">
<g clip-path="url(#clip0_467_25756)">
<path d="M1.68327 6.13335C1.68327 6.13335 4.66804 2.80002 8.34993 2.80002C12.0318 2.80002 15.0166 6.13335 15.0166 6.13335" stroke="#484848" stroke-width="1.5" stroke-linecap="round"/>
<path d="M14.7124 9.49666C14.9151 9.78088 15.0164 9.92299 15.0164 10.1333C15.0164 10.3437 14.9151 10.4858 14.7124 10.77C13.8017 12.047 11.4759 14.8 8.34977 14.8C5.22363 14.8 2.89784 12.047 1.98713 10.77C1.78445 10.4858 1.68311 10.3437 1.68311 10.1333C1.68311 9.92299 1.78445 9.78088 1.98713 9.49667C2.89784 8.21964 5.22362 5.46667 8.34977 5.46667C11.4759 5.46667 13.8017 8.21964 14.7124 9.49666Z" stroke="#484848" stroke-width="1.5"/>
<path d="M10.3496 10.1334C10.3496 9.02879 9.45418 8.13336 8.34961 8.13336C7.24504 8.13336 6.34961 9.02879 6.34961 10.1334C6.34961 11.2379 7.24504 12.1334 8.34961 12.1334C9.45418 12.1334 10.3496 11.2379 10.3496 10.1334Z" stroke="#484848" stroke-width="1.5"/>
</g>
<defs>
<clipPath id="clip0_467_25756">
<rect width="16" height="16" fill="white" transform="translate(0.349609 0.800018)"/>
</clipPath>
</defs>
</svg>
