<svg width="17" height="17" viewBox="0 0 17 17" fill="none" xmlns="http://www.w3.org/2000/svg">
<g clip-path="url(#clip0_467_25802)">
<path d="M1.68327 5.73336C1.68327 5.73336 4.66804 2.40002 8.34993 2.40002C12.0318 2.40002 15.0166 5.73336 15.0166 5.73336" stroke="#484848" stroke-width="1.5" stroke-linecap="round"/>
<path d="M14.7124 9.0967C14.9151 9.38091 15.0164 9.52302 15.0164 9.73338C15.0164 9.94373 14.9151 10.0858 14.7124 10.3701C13.8017 11.6471 11.4759 14.4 8.34977 14.4C5.22363 14.4 2.89784 11.6471 1.98713 10.3701C1.78445 10.0858 1.68311 9.94373 1.68311 9.73338C1.68311 9.52302 1.78445 9.38092 1.98713 9.0967C2.89784 7.81967 5.22362 5.06671 8.34977 5.06671C11.4759 5.06671 13.8017 7.81967 14.7124 9.0967Z" stroke="#484848" stroke-width="1.5"/>
<path d="M10.3496 9.73334C10.3496 8.62877 9.45418 7.73334 8.34961 7.73334C7.24504 7.73334 6.34961 8.62877 6.34961 9.73334C6.34961 10.8379 7.24504 11.7333 8.34961 11.7333C9.45418 11.7333 10.3496 10.8379 10.3496 9.73334Z" stroke="#484848" stroke-width="1.5"/>
</g>
<defs>
<clipPath id="clip0_467_25802">
<rect width="16" height="16" fill="white" transform="translate(0.349609 0.400024)"/>
</clipPath>
</defs>
</svg>
