<svg width="20" height="20" viewBox="0 0 20 20" fill="none" xmlns="http://www.w3.org/2000/svg">
<path d="M7.38121 10.4217C5.30751 8.87135 3.8297 7.16596 3.02278 6.20722C2.773 5.91044 2.69115 5.69325 2.64194 5.31067C2.47343 4.00067 2.38917 3.34567 2.77329 2.92283C3.15742 2.5 3.8367 2.5 5.19527 2.5H14.8047C16.1633 2.5 16.8426 2.5 17.2267 2.92283C17.6108 3.34567 17.5266 4.00067 17.3581 5.31067C17.3089 5.69326 17.227 5.91045 16.9772 6.20722C16.1692 7.16718 14.6884 8.87559 12.6105 10.428C12.4225 10.5684 12.2986 10.7973 12.2756 11.0512C12.0697 13.3266 11.8799 14.573 11.7618 15.2035C11.571 16.2214 10.1276 16.8338 9.35501 17.3803C8.89505 17.7055 8.33692 17.3183 8.27731 16.8148C8.16369 15.8551 7.94967 13.9053 7.71606 11.0512C7.69507 10.7949 7.57071 10.5634 7.38121 10.4217Z" stroke="#232323" stroke-width="1.5" stroke-linecap="round" stroke-linejoin="round"/>
</svg>
