<svg width="17" height="16" viewBox="0 0 17 16" fill="none" xmlns="http://www.w3.org/2000/svg">
<g clip-path="url(#clip0_624_24860)">
<path d="M5.04183 4.33341H11.5418C12.9463 4.33341 13.6485 4.33341 14.153 4.67048C14.3714 4.81639 14.5589 5.00389 14.7048 5.22227C15.0138 5.68471 15.0395 6.17329 15.0416 7.33341M8.37516 4.33341L7.95287 3.48883C7.60302 2.78913 7.28331 2.08483 6.508 1.79409C6.16843 1.66675 5.78051 1.66675 5.00468 1.66675C3.7937 1.66675 3.1882 1.66675 2.73387 1.92029C2.41001 2.10103 2.14278 2.36826 1.96204 2.69212C1.7085 3.14646 1.7085 3.75195 1.7085 4.96293V7.00008C1.7085 10.1428 1.7085 11.7141 2.68481 12.6904C3.58949 13.5951 5.00512 13.6615 7.7085 13.6664H9.04183" stroke="#FEFEFF" stroke-width="1.5" stroke-linecap="round"/>
<path d="M12.7087 9.00016L12.7087 14.3335M12.7087 9.00016C12.2418 9.00016 11.3697 10.3297 11.042 10.6668M12.7087 9.00016C13.1755 9.00016 14.0476 10.3297 14.3753 10.6668" stroke="#FEFEFF" stroke-width="1.5" stroke-linecap="round" stroke-linejoin="round"/>
</g>
<defs>
<clipPath id="clip0_624_24860">
<rect width="16" height="16" fill="white" transform="translate(0.375)"/>
</clipPath>
</defs>
</svg>
