<svg width="622" height="139" viewBox="0 0 622 139" fill="none" xmlns="http://www.w3.org/2000/svg">
<path d="M1 0V139" stroke="#E9E9E9"/>
<path d="M1.5 133C1.5 132.724 1.27614 132.5 1 132.5C0.723858 132.5 0.5 132.724 0.5 133L1.5 133ZM0.5 133L0.5 139L1.5 139L1.5 133L0.5 133Z" fill="#080808"/>
<path d="M125 0V139" stroke="#E9E9E9"/>
<path d="M125.5 133C125.5 132.724 125.276 132.5 125 132.5C124.724 132.5 124.5 132.724 124.5 133L125.5 133ZM124.5 133L124.5 139L125.5 139L125.5 133L124.5 133Z" fill="#080808"/>
<path d="M249 0V139" stroke="#E9E9E9"/>
<path d="M249.5 133C249.5 132.724 249.276 132.5 249 132.5C248.724 132.5 248.5 132.724 248.5 133L249.5 133ZM248.5 133L248.5 139L249.5 139L249.5 133L248.5 133Z" fill="#080808"/>
<path d="M373 0V139" stroke="#E9E9E9"/>
<path d="M373.5 133C373.5 132.724 373.276 132.5 373 132.5C372.724 132.5 372.5 132.724 372.5 133L373.5 133ZM372.5 133L372.5 139L373.5 139L373.5 133L372.5 133Z" fill="#080808"/>
<path d="M497 0V139" stroke="#E9E9E9"/>
<path d="M497.5 133C497.5 132.724 497.276 132.5 497 132.5C496.724 132.5 496.5 132.724 496.5 133L497.5 133ZM496.5 133L496.5 139L497.5 139L497.5 133L496.5 133Z" fill="#080808"/>
<path d="M621 0V139" stroke="#E9E9E9"/>
<path d="M621.5 133C621.5 132.724 621.276 132.5 621 132.5C620.724 132.5 620.5 132.724 620.5 133L621.5 133ZM620.5 133L620.5 139L621.5 139L621.5 133L620.5 133Z" fill="#080808"/>
</svg>
