<svg width="25" height="24" viewBox="0 0 25 24" fill="none" xmlns="http://www.w3.org/2000/svg">
<path d="M21.7425 16.8354C21.0862 12.8866 19.043 9.94613 17.2668 8.219C16.7499 7.71642 16.4915 7.46513 15.9206 7.23257C15.3497 7 14.859 7 13.8776 7H11.722C10.7406 7 10.2499 7 9.67902 7.23257C9.10814 7.46513 8.84971 7.71642 8.33285 8.219C6.55662 9.94613 4.51341 12.8866 3.85707 16.8354C3.36873 19.7734 6.07908 22 9.10813 22H16.4915C19.5205 22 22.2309 19.7734 21.7425 16.8354Z" stroke="url(#paint0_linear_51_36133)" stroke-width="1.5" stroke-linecap="round"/>
<path d="M13.4628 11C13.4628 10.5858 13.1271 10.25 12.7128 10.25C12.2986 10.25 11.9628 10.5858 11.9628 11L13.4628 11ZM11.9628 18C11.9628 18.4142 12.2986 18.75 12.7128 18.75C13.1271 18.75 13.4628 18.4142 13.4628 18H11.9628ZM13.7855 12.9539C14.0361 13.2836 14.5066 13.3477 14.8364 13.0971C15.1662 12.8464 15.2303 12.3759 14.9796 12.0461L13.7855 12.9539ZM11.547 16.1022C11.2383 15.826 10.7642 15.8523 10.488 16.1609C10.2117 16.4696 10.238 16.9437 10.5467 17.22L11.547 16.1022ZM12.7128 13.6493C12.0655 13.6493 11.7709 13.5437 11.6536 13.4647C11.5998 13.4285 11.5498 13.3874 11.5498 13.1895H10.0498C10.0498 13.771 10.2606 14.3349 10.8156 14.7088C11.307 15.0398 11.9688 15.1493 12.7128 15.1493V13.6493ZM11.5498 13.1895C11.5498 13.094 11.6006 12.946 11.8054 12.7949C12.01 12.6439 12.3283 12.5279 12.7128 12.5279V11.0279C12.0408 11.0279 11.4027 11.2279 10.9148 11.5879C10.4272 11.9476 10.0498 12.5054 10.0498 13.1895H11.5498ZM14.0498 15.8109C14.0498 16.0328 13.9709 16.1505 13.8024 16.2518C13.5883 16.3804 13.221 16.4724 12.7128 16.4724V17.9724C13.3573 17.9724 14.0335 17.8628 14.5747 17.5376C15.1615 17.1852 15.5498 16.5971 15.5498 15.8109H14.0498ZM12.7128 15.1493C13.3662 15.1493 13.7069 15.2499 13.8684 15.3552C13.9624 15.4165 14.0498 15.5063 14.0498 15.8109H15.5498C15.5498 15.1072 15.2894 14.4912 14.6878 14.0988C14.1536 13.7504 13.4508 13.6493 12.7128 13.6493V15.1493ZM13.4628 11.7779L13.4628 11L11.9628 11L11.9628 11.7779L13.4628 11.7779ZM11.9628 17.2224V18H13.4628V17.2224H11.9628ZM12.7128 12.5279C13.2477 12.5279 13.6285 12.7474 13.7855 12.9539L14.9796 12.0461C14.4815 11.3908 13.6124 11.0279 12.7128 11.0279V12.5279ZM12.7128 16.4724C12.1795 16.4724 11.7649 16.2972 11.547 16.1022L10.5467 17.22C11.0907 17.7068 11.8851 17.9724 12.7128 17.9724V16.4724Z" fill="url(#paint1_linear_51_36133)"/>
<path d="M8.05642 4.44287C7.85012 4.14258 7.55108 3.73499 8.1688 3.64205C8.80372 3.54651 9.46302 3.98114 10.1084 3.97221C10.6922 3.96413 10.9896 3.70519 11.3087 3.33548C11.6447 2.94617 12.165 2 12.7998 2C13.4346 2 13.9549 2.94617 14.2909 3.33548C14.61 3.70519 14.9074 3.96413 15.4913 3.97221C16.1366 3.98114 16.7959 3.54651 17.4308 3.64205C18.0485 3.73499 17.7495 4.14258 17.5432 4.44287L16.6104 5.80064C16.2113 6.38146 16.0118 6.67187 15.5942 6.83594C15.1767 7 14.6371 7 13.558 7H12.0416C10.9625 7 10.4229 7 10.0054 6.83594C9.58782 6.67187 9.3883 6.38146 8.98926 5.80064L8.05642 4.44287Z" stroke="url(#paint2_linear_51_36133)" stroke-width="1.5"/>
<defs>
<linearGradient id="paint0_linear_51_36133" x1="0.256054" y1="4.0975" x2="18.9691" y2="26.6392" gradientUnits="userSpaceOnUse">
<stop stop-color="#EC522C"/>
<stop offset="0.537711" stop-color="#EB6B4C"/>
<stop offset="1" stop-color="#B03684"/>
</linearGradient>
<linearGradient id="paint1_linear_51_36133" x1="10.0123" y1="9.6455" x2="17.6815" y2="14.0447" gradientUnits="userSpaceOnUse">
<stop stop-color="#EC522C"/>
<stop offset="0.537711" stop-color="#EB6B4C"/>
<stop offset="1" stop-color="#B03684"/>
</linearGradient>
<linearGradient id="paint2_linear_51_36133" x1="5.83105" y1="1.0325" x2="10.8963" y2="11.2017" gradientUnits="userSpaceOnUse">
<stop stop-color="#EC522C"/>
<stop offset="0.537711" stop-color="#EB6B4C"/>
<stop offset="1" stop-color="#B03684"/>
</linearGradient>
</defs>
</svg>
