<svg width="24" height="24" viewBox="0 0 24 24" fill="none" xmlns="http://www.w3.org/2000/svg">
<path d="M5.15886 11.491C5.08538 12.887 5.16985 14.373 3.92262 15.3084C3.34212 15.7438 3.00049 16.427 3.00049 17.1527C3.00049 18.1508 3.78229 19 4.80049 19H19.2005C20.2187 19 21.0005 18.1508 21.0005 17.1527C21.0005 16.427 20.6589 15.7438 20.0784 15.3084C18.8311 14.373 18.9156 12.887 18.8421 11.491C18.6506 7.85223 15.6443 5 12.0005 5C8.35666 5 5.35037 7.85222 5.15886 11.491Z" stroke="#232323" stroke-width="1.5" stroke-linecap="round" stroke-linejoin="round"/>
<path d="M10.5005 3.125C10.5005 3.95343 11.1721 5 12.0005 5C12.8289 5 13.5005 3.95343 13.5005 3.125C13.5005 2.29657 12.8289 2 12.0005 2C11.1721 2 10.5005 2.29657 10.5005 3.125Z" stroke="#232323" stroke-width="1.5"/>
<path d="M15.0005 19C15.0005 20.6569 13.6573 22 12.0005 22C10.3436 22 9.00049 20.6569 9.00049 19" stroke="#232323" stroke-width="1.5" stroke-linecap="round" stroke-linejoin="round"/>
</svg>
