<svg width="18" height="18" viewBox="0 0 18 18" fill="none" xmlns="http://www.w3.org/2000/svg">
<path d="M9 16.5C8.38636 16.5 7.80014 16.2524 6.6277 15.7571C3.70923 14.5243 2.25 13.9078 2.25 12.871C2.25 12.5806 2.25 7.54839 2.25 5.25M9 16.5C9.61364 16.5 10.1999 16.2524 11.3723 15.7571C14.2908 14.5243 15.75 13.9078 15.75 12.871L15.75 5.25M9 16.5L9 8.51613" stroke="#7F7F7F" stroke-width="1.5" stroke-linecap="round" stroke-linejoin="round"/>
<path d="M6.24444 7.26854L4.05354 6.20838C2.85118 5.62658 2.25 5.33567 2.25 4.875C2.25 4.41433 2.85118 4.12342 4.05354 3.54162L6.24444 2.48146C7.59663 1.82715 8.27272 1.5 9 1.5C9.72728 1.5 10.4034 1.82715 11.7556 2.48146L13.9465 3.54161C15.1488 4.12342 15.75 4.41433 15.75 4.875C15.75 5.33567 15.1488 5.62658 13.9465 6.20838L11.7556 7.26854C10.4034 7.92285 9.72728 8.25 9 8.25C8.27272 8.25 7.59663 7.92285 6.24444 7.26854Z" stroke="#7F7F7F" stroke-width="1.5" stroke-linecap="round" stroke-linejoin="round"/>
<path d="M4.5 9L6 9.75" stroke="#7F7F7F" stroke-width="1.5" stroke-linecap="round" stroke-linejoin="round"/>
<path d="M12.75 3L5.25 6.75" stroke="#7F7F7F" stroke-width="1.5" stroke-linecap="round" stroke-linejoin="round"/>
</svg>
