<svg width="32" height="30" viewBox="0 0 32 30" fill="none" xmlns="http://www.w3.org/2000/svg">
<path d="M24.4664 10.5166C24.4776 10.5165 24.4888 10.5165 24.5 10.5165C28.2279 10.5165 31.25 13.5441 31.25 17.2789C31.25 20.7597 28.625 23.6262 25.25 24M24.4664 10.5166C24.4886 10.2691 24.5 10.0184 24.5 9.76513C24.5 5.20043 20.8063 1.5 16.25 1.5C11.9349 1.5 8.39349 4.81901 8.03063 9.04787M24.4664 10.5166C24.313 12.2214 23.6429 13.7769 22.6143 15.0248M8.03063 9.04787C4.22597 9.41059 1.25 12.6209 1.25 16.5275C1.25 20.1626 3.82664 23.1948 7.25 23.891M8.03063 9.04787C8.26739 9.0253 8.50735 9.01376 8.75 9.01376C10.4387 9.01376 11.9971 9.57292 13.2507 10.5165" stroke="#EC522C" stroke-width="1.5" stroke-linecap="round" stroke-linejoin="round"/>
<path d="M16.25 16.5L16.25 28.5M16.25 16.5C15.1997 16.5 13.2373 19.4915 12.5 20.25M16.25 16.5C17.3003 16.5 19.2627 19.4915 20 20.25" stroke="#EC522C" stroke-width="1.5" stroke-linecap="round" stroke-linejoin="round"/>
</svg>
