<svg width="18" height="14" viewBox="0 0 18 14" fill="none" xmlns="http://www.w3.org/2000/svg">
<g id="elements">
<path id="Ellipse 1647" d="M14.625 11.125C14.625 12.1605 13.7855 13 12.75 13C11.7145 13 10.875 12.1605 10.875 11.125C10.875 10.0895 11.7145 9.25 12.75 9.25C13.7855 9.25 14.625 10.0895 14.625 11.125Z" stroke="#7F7F7F" stroke-width="1.5"/>
<path id="Ellipse 1648" d="M7.125 11.125C7.125 12.1605 6.28553 13 5.25 13C4.21447 13 3.375 12.1605 3.375 11.125C3.375 10.0895 4.21447 9.25 5.25 9.25C6.28553 9.25 7.125 10.0895 7.125 11.125Z" stroke="#7F7F7F" stroke-width="1.5"/>
<path id="Vector 5060" d="M10.875 11.125H7.125M14.625 11.125H15.1974C15.3624 11.125 15.4448 11.125 15.5142 11.1164C16.0252 11.0527 16.4277 10.6502 16.4914 10.1392C16.5 10.0698 16.5 9.98735 16.5 9.82237V7.75C16.5 5.05761 14.3174 2.875 11.625 2.875M1.5 1L9 1C10.0607 1 10.591 1 10.9205 1.3295C11.25 1.65901 11.25 2.18934 11.25 3.25L11.25 9.625M1.5 7.5625L1.5 9.25C1.5 9.95096 1.5 10.3014 1.65072 10.5625C1.74946 10.7335 1.89148 10.8755 2.0625 10.9743C2.32356 11.125 2.67404 11.125 3.375 11.125" stroke="#7F7F7F" stroke-width="1.5" stroke-linecap="round" stroke-linejoin="round"/>
<path id="Vector" d="M1.5 3.25L6 3.25M1.5 5.5L4.5 5.5" stroke="#7F7F7F" stroke-width="1.5" stroke-linecap="round" stroke-linejoin="round"/>
</g>
</svg>
