<svg width="16" height="16" viewBox="0 0 16 16" fill="none" xmlns="http://www.w3.org/2000/svg">
<g id="elements">
<path id="Rectangle 2167" d="M9.38263 2.59046C9.87942 2.05222 10.1278 1.78309 10.3918 1.62611C11.0287 1.24734 11.8129 1.23556 12.4604 1.59504C12.7288 1.74403 12.9848 2.00558 13.4969 2.52867C14.0089 3.05176 14.265 3.31331 14.4108 3.58745C14.7627 4.24891 14.7512 5.05002 14.3804 5.70063C14.2267 5.97027 13.9633 6.22401 13.4364 6.7315L7.16725 12.7697C6.16875 13.7314 5.6695 14.2123 5.04554 14.456C4.42158 14.6997 3.73563 14.6818 2.36374 14.6459L2.17708 14.641C1.75943 14.6301 1.55061 14.6246 1.42922 14.4869C1.30783 14.3491 1.3244 14.1364 1.35755 13.7109L1.37555 13.4799C1.46883 12.2825 1.51548 11.6838 1.7493 11.1456C1.98312 10.6075 2.38645 10.1705 3.19311 9.2965L9.38263 2.59046Z" stroke="#FEFEFF" stroke-width="1.5" stroke-linejoin="round"/>
<path id="Vector 4200" d="M8.66699 2.66699L13.3337 7.33366" stroke="#FEFEFF" stroke-width="1.5" stroke-linejoin="round"/>
<path id="Vector 4201" d="M9.3335 14.667L14.6668 14.667" stroke="#FEFEFF" stroke-width="1.5" stroke-linecap="round" stroke-linejoin="round"/>
</g>
</svg>
