<svg width="18" height="18" viewBox="0 0 18 18" fill="none" xmlns="http://www.w3.org/2000/svg">
<g id="elements">
<path id="Vector" d="M14.4167 12.333C14.8381 12.7426 16.5 13.8328 16.5 14.4163M14.4167 16.4997C14.8381 16.0901 16.5 14.9999 16.5 14.4163M16.5 14.4163L9.83333 14.4163" stroke="#232323" stroke-width="1.2" stroke-linecap="round" stroke-linejoin="round"/>
<path id="Rectangle 2174" d="M8.1665 17.333H7.93923C5.22156 17.333 3.86272 17.333 2.91906 16.6681C2.64869 16.4777 2.40865 16.2517 2.20625 15.9973C1.49984 15.1091 1.49984 13.8302 1.49984 11.2724V9.15119C1.49984 6.68188 1.49984 5.44723 1.89062 4.46113C2.51885 2.87586 3.84745 1.62541 5.5318 1.03413C6.57953 0.666341 7.89135 0.66634 10.515 0.66634C12.0142 0.66634 12.7638 0.66634 13.3625 0.876508C14.325 1.21438 15.0842 1.92892 15.4432 2.83479C15.6665 3.39827 15.6665 4.10379 15.6665 5.51483V9.83301" stroke="#232323" stroke-width="1.2" stroke-linecap="round" stroke-linejoin="round"/>
<path id="Vector_2" d="M1.50016 9C1.50016 7.46588 2.74382 6.22222 4.27794 6.22222C4.83276 6.22222 5.48686 6.31944 6.0263 6.1749C6.50559 6.04647 6.87997 5.6721 7.00839 5.1928C7.15294 4.65336 7.05572 3.99926 7.05572 3.44444C7.05572 1.91032 8.29937 0.666667 9.8335 0.666667" stroke="#232323" stroke-width="1.2" stroke-linecap="round" stroke-linejoin="round"/>
</g>
</svg>
