<svg width="18" height="18" viewBox="0 0 18 18" fill="none" xmlns="http://www.w3.org/2000/svg">
<g id="elements">
<path id="Vector 5338" d="M16.5 10.125V6L1.5 6L1.5 10.0714C1.5 13.1019 1.5 14.6171 2.47631 15.5586C3.381 16.4309 4.79662 16.4949 7.5 16.4996" stroke="#ffffff" stroke-width="1.5" stroke-linecap="round" stroke-linejoin="round"/>
<g id="Vector">
<path fill-rule="evenodd" clip-rule="evenodd" d="M12.75 13.875H12.7567H12.75Z" fill="#ffffff"/>
<path d="M12.75 13.875H12.7567" stroke="#ffffff" stroke-width="2" stroke-linecap="round" stroke-linejoin="round"/>
</g>
<path id="Ellipse 1333" d="M16.329 13.5169C16.443 13.6767 16.5 13.7567 16.5 13.875C16.5 13.9933 16.443 14.0733 16.329 14.2331C15.8167 14.9515 14.5085 16.5 12.75 16.5C10.9915 16.5 9.68329 14.9515 9.17102 14.2331C9.05701 14.0733 9 13.9933 9 13.875C9 13.7567 9.05701 13.6767 9.17102 13.5169C9.68329 12.7985 10.9915 11.25 12.75 11.25C14.5085 11.25 15.8167 12.7985 16.329 13.5169Z" stroke="#ffffff" stroke-width="1.5"/>
<path id="Vector_2" d="M1.5 6L2.22115 4.26923C2.78045 2.92693 3.06009 2.25577 3.62692 1.87789C4.19375 1.5 4.92084 1.5 6.375 1.5L11.625 1.5C13.0792 1.5 13.8062 1.5 14.3731 1.87789C14.9399 2.25577 15.2196 2.92693 15.7788 4.26923L16.5 6" stroke="#ffffff" stroke-width="1.5" stroke-linecap="round"/>
<path id="Vector 7284" d="M9 6L9 1.5" stroke="#ffffff" stroke-width="1.5" stroke-linecap="round"/>
<path id="Vector 7282" d="M7.5 9L10.5 9" stroke="#ffffff" stroke-width="1.5" stroke-linecap="round"/>
</g>
</svg>
