<svg width="18" height="18" viewBox="0 0 18 18" fill="none" xmlns="http://www.w3.org/2000/svg">
<g id="elements">
<path id="Vector" d="M5.625 9H10.125M5.625 6H7.875" stroke="#ffffff" stroke-width="1.5" stroke-linecap="round" stroke-linejoin="round"/>
<path id="Vector_2" d="M6.375 15C7.16279 15.6523 8.11088 16.0678 9.19764 16.1391C10.0539 16.1953 10.9479 16.1952 11.8024 16.1391C12.0966 16.1198 12.4174 16.0505 12.6936 15.9383C13.0009 15.8134 13.1546 15.7509 13.2327 15.7603C13.3108 15.7698 13.4242 15.8523 13.6508 16.0172C14.0504 16.308 14.5538 16.5169 15.3003 16.4989C15.6778 16.4899 15.8666 16.4853 15.9511 16.3432C16.0356 16.201 15.9304 16.0042 15.7199 15.6106C15.428 15.0646 15.243 14.4397 15.5233 13.9389C16.0059 13.2236 16.4159 12.3766 16.4759 11.4617C16.508 10.9701 16.508 10.4611 16.4759 9.96951C16.4359 9.35993 16.288 8.78045 16.0509 8.25" stroke="#ffffff" stroke-width="1.5" stroke-linecap="round" stroke-linejoin="round"/>
<path id="Vector_3" d="M9.25876 13.1151C11.9254 12.9395 14.0496 10.8052 14.2243 8.12582C14.2586 7.60148 14.2586 7.05848 14.2243 6.53414C14.0496 3.85476 11.9254 1.72051 9.25876 1.54489C8.349 1.48498 7.39915 1.4851 6.49124 1.54489C3.82457 1.72051 1.70044 3.85476 1.52565 6.53414C1.49145 7.05848 1.49145 7.60148 1.52565 8.12582C1.58931 9.10168 2.02494 10.0052 2.53779 10.7682C2.83557 11.3023 2.63905 11.969 2.32889 12.5513C2.10525 12.9711 1.99343 13.181 2.08321 13.3327C2.17299 13.4843 2.37354 13.4892 2.77463 13.4989C3.56784 13.518 4.10271 13.2952 4.52728 12.985C4.76808 12.8091 4.88848 12.7211 4.97147 12.711C5.05445 12.7009 5.21775 12.7676 5.5443 12.9008C5.83781 13.0206 6.17859 13.0945 6.49124 13.1151C7.39915 13.1749 8.349 13.175 9.25876 13.1151Z" stroke="#ffffff" stroke-width="1.5" stroke-linejoin="round"/>
</g>
</svg>
