<svg width="16" height="16" viewBox="0 0 16 16" fill="none" xmlns="http://www.w3.org/2000/svg">
<g id="elements">
<path id="Ellipse 1200" d="M14.75 12.125C14.75 13.5747 13.5747 14.75 12.125 14.75C10.6753 14.75 9.5 13.5747 9.5 12.125C9.5 10.6753 10.6753 9.5 12.125 9.5C13.5747 9.5 14.75 10.6753 14.75 12.125Z" stroke="#7F7F7F" stroke-width="1.5"/>
<path id="Vector 6805" d="M12.125 9.5L3.875 9.5C2.42525 9.5 1.25 10.6753 1.25 12.125C1.25 13.5747 2.42525 14.75 3.875 14.75L12.125 14.75C13.5747 14.75 14.75 13.5747 14.75 12.125C14.75 10.6753 13.5747 9.5 12.125 9.5Z" stroke="#7F7F7F" stroke-width="1.5"/>
<path id="Ellipse 1201" d="M1.25 3.875C1.25 5.32475 2.42525 6.5 3.875 6.5C5.32475 6.5 6.5 5.32475 6.5 3.875C6.5 2.42525 5.32475 1.25 3.875 1.25C2.42525 1.25 1.25 2.42525 1.25 3.875Z" stroke="#7F7F7F" stroke-width="1.5"/>
<path id="Vector 6806" d="M3.875 1.25L12.125 1.25C13.5747 1.25 14.75 2.42525 14.75 3.875C14.75 5.32475 13.5747 6.5 12.125 6.5L3.875 6.5C2.42525 6.5 1.25 5.32475 1.25 3.875C1.25 2.42525 2.42525 1.25 3.875 1.25Z" stroke="#7F7F7F" stroke-width="1.5"/>
</g>
</svg>
