<svg width="20" height="22" viewBox="0 0 20 22" fill="none" xmlns="http://www.w3.org/2000/svg">
<g id="elements">
<path id="Vector" d="M18.7425 15.8354C18.0862 11.8866 16.043 8.94613 14.2668 7.219C13.7499 6.71642 13.4915 6.46513 12.9206 6.23257C12.3497 6 11.859 6 10.8776 6H8.72203C7.74061 6 7.2499 6 6.67902 6.23257C6.10814 6.46513 5.84971 6.71642 5.33285 7.219C3.55662 8.94613 1.51341 11.8866 0.857072 15.8354C0.368735 18.7734 3.07908 21 6.10813 21H13.4915C16.5205 21 19.2309 18.7734 18.7425 15.8354Z" stroke="url(#paint0_linear_531_2992)" stroke-width="1.5" stroke-linecap="round"/>
<path id="Vector_2" d="M10.4628 10C10.4628 9.58579 10.1271 9.25 9.71285 9.25C9.29864 9.25 8.96285 9.58579 8.96285 10L10.4628 10ZM8.96285 17C8.96285 17.4142 9.29863 17.75 9.71285 17.75C10.1271 17.75 10.4628 17.4142 10.4628 17H8.96285ZM10.7855 11.9539C11.0361 12.2836 11.5066 12.3477 11.8364 12.0971C12.1662 11.8464 12.2303 11.3759 11.9796 11.0461L10.7855 11.9539ZM8.547 15.1022C8.23835 14.826 7.7642 14.8523 7.48797 15.1609C7.21173 15.4696 7.23802 15.9437 7.54667 16.22L8.547 15.1022ZM9.71285 12.6493C9.06555 12.6493 8.77085 12.5437 8.65361 12.4647C8.59983 12.4285 8.5498 12.3874 8.5498 12.1895H7.0498C7.0498 12.771 7.26065 13.3349 7.81556 13.7088C8.30702 14.0398 8.96884 14.1493 9.71285 14.1493V12.6493ZM8.5498 12.1895C8.5498 12.094 8.60063 11.946 8.80541 11.7949C9.00995 11.6439 9.32833 11.5279 9.71285 11.5279V10.0279C9.04082 10.0279 8.40268 10.2279 7.91483 10.5879C7.42723 10.9476 7.0498 11.5054 7.0498 12.1895H8.5498ZM11.0498 14.8109C11.0498 15.0328 10.9709 15.1505 10.8024 15.2518C10.5883 15.3804 10.221 15.4724 9.71285 15.4724V16.9724C10.3573 16.9724 11.0335 16.8628 11.5747 16.5376C12.1615 16.1852 12.5498 15.5971 12.5498 14.8109H11.0498ZM9.71285 14.1493C10.3662 14.1493 10.7069 14.2499 10.8684 14.3552C10.9624 14.4165 11.0498 14.5063 11.0498 14.8109H12.5498C12.5498 14.1072 12.2894 13.4912 11.6878 13.0988C11.1536 12.7504 10.4508 12.6493 9.71285 12.6493V14.1493ZM10.4628 10.7779L10.4628 10L8.96285 10L8.96285 10.7779L10.4628 10.7779ZM8.96285 16.2224V17H10.4628V16.2224H8.96285ZM9.71285 11.5279C10.2477 11.5279 10.6285 11.7474 10.7855 11.9539L11.9796 11.0461C11.4815 10.3908 10.6124 10.0279 9.71285 10.0279V11.5279ZM9.71285 15.4724C9.17945 15.4724 8.76492 15.2972 8.547 15.1022L7.54667 16.22C8.09069 16.7068 8.88512 16.9724 9.71285 16.9724V15.4724Z" fill="url(#paint1_linear_531_2992)"/>
<path id="Rectangle 2181" d="M5.05642 3.44287C4.85012 3.14258 4.55108 2.73499 5.1688 2.64205C5.80372 2.54651 6.46302 2.98114 7.10835 2.97221C7.69217 2.96413 7.98961 2.70519 8.30872 2.33548C8.64474 1.94617 9.16503 1 9.7998 1C10.4346 1 10.9549 1.94617 11.2909 2.33548C11.61 2.70519 11.9074 2.96413 12.4913 2.97221C13.1366 2.98114 13.7959 2.54651 14.4308 2.64205C15.0485 2.73499 14.7495 3.14258 14.5432 3.44287L13.6104 4.80064C13.2113 5.38146 13.0118 5.67187 12.5942 5.83594C12.1767 6 11.6371 6 10.558 6H9.04161C7.96247 6 7.4229 6 7.00536 5.83594C6.58782 5.67187 6.3883 5.38146 5.98926 4.80064L5.05642 3.44287Z" stroke="url(#paint2_linear_531_2992)" stroke-width="1.5"/>
</g>
<defs>
<linearGradient id="paint0_linear_531_2992" x1="-2.74395" y1="3.0975" x2="15.9691" y2="25.6392" gradientUnits="userSpaceOnUse">
<stop stop-color="#EC522C"/>
<stop offset="0.537711" stop-color="#EB6B4C"/>
<stop offset="1" stop-color="#B03684"/>
</linearGradient>
<linearGradient id="paint1_linear_531_2992" x1="7.0123" y1="8.6455" x2="14.6815" y2="13.0447" gradientUnits="userSpaceOnUse">
<stop stop-color="#EC522C"/>
<stop offset="0.537711" stop-color="#EB6B4C"/>
<stop offset="1" stop-color="#B03684"/>
</linearGradient>
<linearGradient id="paint2_linear_531_2992" x1="2.83105" y1="0.0325" x2="7.89626" y2="10.2017" gradientUnits="userSpaceOnUse">
<stop stop-color="#EC522C"/>
<stop offset="0.537711" stop-color="#EB6B4C"/>
<stop offset="1" stop-color="#B03684"/>
</linearGradient>
</defs>
</svg>
